<?xml version="1.0" standalone="no"?>
<!DOCTYPE svg PUBLIC "-//W3C//DTD SVG 20010904//EN"
 "http://www.w3.org/TR/2001/REC-SVG-20010904/DTD/svg10.dtd">
<svg version="1.0" xmlns="http://www.w3.org/2000/svg"
 width="221.000000pt" height="221.000000pt" viewBox="0 0 221.000000 221.000000"
 preserveAspectRatio="xMidYMid meet">
<metadata>
Created by potrace 1.11, written by Peter Selinger 2001-2013
</metadata>
<g transform="translate(0.000000,221.000000) scale(0.100000,-0.100000)"
fill="#000000" stroke="none">
<path d="M1068 1864 c-161 -29 -306 -97 -428 -199 -69 -59 -90 -85 -68 -85 7
0 42 25 78 56 351 299 859 282 1182 -41 75 -75 125 -93 62 -22 -208 233 -526
346 -826 291z"/>
<path d="M1050 1764 c-85 -18 -162 -46 -153 -55 16 -15 70 -13 143 5 95 23
250 24 342 2 136 -32 240 -88 351 -186 48 -44 60 -50 73 -39 13 11 9 19 -33
61 -100 102 -249 182 -395 212 -94 19 -240 19 -328 0z"/>
<path d="M1105 1655 c-5 -2 -22 -6 -37 -9 l-27 -6 21 -35 c11 -20 24 -54 30
-78 5 -23 21 -54 35 -69 32 -34 36 -97 7 -130 -39 -43 -70 -48 -308 -48 l-224
0 -16 -41 c-47 -117 -59 -282 -30 -410 17 -75 17 -76 101 -98 75 -20 130 -85
147 -171 3 -19 17 -46 31 -60 14 -14 26 -41 28 -60 3 -30 11 -39 55 -63 121
-66 316 -86 466 -47 121 31 208 82 307 180 141 141 203 294 197 490 l-3 95
-140 5 c-158 6 -193 19 -229 79 -63 109 37 241 161 213 77 -17 73 18 -12 96
-126 115 -279 173 -454 171 -53 0 -100 -2 -106 -4z"/>
<path d="M408 1364 c-87 -196 -107 -387 -63 -583 10 -41 24 -90 32 -110 12
-28 17 -32 24 -19 6 10 4 28 -5 50 -23 54 -46 194 -46 278 0 103 24 226 64
325 19 47 30 88 26 99 -5 14 -12 5 -32 -40z"/>
<path d="M475 1284 c-8 -20 -23 -64 -32 -98 -30 -109 -20 -397 17 -456 4 -7
16 -9 28 -6 19 6 19 9 6 52 -46 153 -34 352 31 506 4 11 0 20 -14 27 -18 10
-22 7 -36 -25z"/>
<path d="M1962 988 c0 -129 -21 -223 -72 -331 -67 -142 -205 -280 -347 -347
-206 -97 -450 -98 -654 -1 -60 28 -109 33 -109 11 0 -13 160 -87 225 -105 33
-9 110 -19 171 -22 240 -12 452 72 616 245 150 159 222 348 216 562 -3 88 -5
95 -24 98 -20 3 -21 -1 -22 -110z"/>
<path d="M2088 1007 c16 -423 -288 -802 -707 -881 -242 -46 -504 17 -693 166
-21 16 -46 28 -55 26 -14 -3 -5 -14 35 -46 115 -90 251 -149 408 -177 109 -19
179 -19 288 0 389 68 673 352 741 741 23 130 18 264 -9 264 -8 0 -10 -29 -8
-93z"/>
</g>
</svg>
